# xmcd
#
# Track frame offsets:
#	150
#	17306
#	27760
#	41084
#	60877
#	72506
#	86003
#	102078
#
# Disc length: 1549 seconds
#
# Revision: 0
# Processed by: cddbd v1.5.2PL0 Copyright (c) Steve Scherf et al.
# Submitted via: EasyCDDAExtractor 16.0.8.1
#
DISCID=57060b08
DTITLE=Antti Karineva and Dave Rios - Blues Union
DYEAR=2012
DGENRE=Blues
TTITLE0=Watch Your Pocket
TTITLE1=Sweet Jane
TTITLE2=Loose The Attitude
TTITLE3=El Paso
TTITLE4=One Way
TTITLE5=So Good Morning Blues
TTITLE6=Don't Talk about Me When I'm Gone
TTITLE7=Too Close To Heaven
EXTD=
EXTT0=
EXTT1=
EXTT2=
EXTT3=
EXTT4=
EXTT5=
EXTT6=
EXTT7=
PLAYORDER=
